<svg xmlns="http://www.w3.org/2000/svg" width="512" height="512" viewBox="0 0 512 512" version="1.1">

<path d="M 148.250 153.247 C 144.543 154.436, 144.094 155.530, 147 156.290 C 148.884 156.783, 149 157.654, 149 171.371 C 149 184.906, 148.859 186.005, 147 187 C 143.283 188.989, 144.968 190, 152 190 C 158.779 190, 161.573 188.486, 157 187.290 C 155.097 186.792, 155 185.926, 155 169.383 C 155 150.102, 155.361 150.966, 148.250 153.247 M 40.750 155.816 C 37.603 156.179, 36.977 158, 40 158 C 41.908 158, 42 158.667, 42 172.500 C 42 186.333, 41.908 187, 40 187 C 38.889 187, 38 187.667, 38 188.500 C 38 189.700, 39.500 190, 45.500 190 C 51.500 190, 53 189.700, 53 188.500 C 53 187.667, 52.111 187, 51 187 C 49.203 187, 49 186.333, 49 180.440 C 49 173.454, 55.890 170.203, 56.820 176.750 C 57.560 181.961, 60 179.083, 60 173 C 60 166.924, 57.916 164.390, 56.710 169 C 56.308 170.538, 55.346 171, 52.546 171 C 47.420 171, 47.253 158.757, 52.371 158.172 C 57.354 157.602, 60 158.763, 60 161.519 C 60 163.333, 60.537 164, 62 164 C 63.661 164, 64 163.333, 64 160.064 C 64 156.143, 53.920 154.301, 40.750 155.816 M 165.372 161.947 C 164.379 163.628, 162.765 165.257, 161.784 165.569 C 159.428 166.316, 159.515 167.640, 161.963 168.280 C 163.719 168.739, 163.955 169.827, 164.213 178.625 C 164.538 189.753, 165.614 191.045, 173.348 189.594 C 177.969 188.728, 178.233 186.246, 173.750 185.813 C 168.379 185.295, 168.098 168, 173.461 168 C 175.407 168, 177 167.550, 177 167 C 177 166.450, 175.454 166, 173.563 166 C 170.436 166, 170.099 165.715, 169.813 162.827 C 169.394 158.577, 167.576 158.217, 165.372 161.947 M 211.372 161.947 C 210.379 163.628, 208.765 165.257, 207.784 165.569 C 205.415 166.321, 205.520 167.641, 208 168.290 C 209.821 168.766, 210 169.654, 210 178.206 C 210 188.577, 210.662 190.008, 215.450 189.986 C 222.688 189.954, 226.304 186.445, 219.750 185.813 C 214.379 185.295, 214.098 168, 219.461 168 C 221.407 168, 223 167.550, 223 167 C 223 166.450, 221.454 166, 219.563 166 C 216.436 166, 216.099 165.715, 215.813 162.827 C 215.394 158.577, 213.576 158.217, 211.372 161.947 M 68.828 165.627 C 63.012 168.042, 62.534 172, 68.059 172 C 70.304 172, 71 171.540, 71 170.059 C 71 167.539, 72.517 166.662, 75.557 167.425 C 80.750 168.728, 78.874 173.604, 72.461 175.468 C 63.700 178.015, 60.839 182.470, 64.557 187.777 C 66.431 190.454, 71.614 190.768, 76.050 188.474 C 78.694 187.107, 79 187.107, 79 188.474 C 79 189.616, 80.133 190, 83.500 190 C 87.868 190, 89.541 188.529, 86.500 187.362 C 85.371 186.928, 85 185.112, 85 180.018 C 85 165.194, 80.188 160.912, 68.828 165.627 M 99.500 165.206 C 86.004 169.922, 88.457 190, 102.530 190 C 107.632 190, 112 188.280, 112 186.272 C 112 185.269, 111.355 185.070, 109.755 185.578 C 102.252 187.959, 97.686 184.729, 97.574 176.961 C 97.464 169.329, 104.970 163.205, 105.808 170.242 C 106.178 173.350, 108.164 174.332, 110.550 172.587 C 113.522 170.414, 111.712 166.292, 107.242 165.050 C 102.933 163.854, 103.397 163.844, 99.500 165.206 M 117.250 165.584 C 113.542 167.206, 113.095 168.530, 116 169.290 C 117.801 169.761, 118 170.654, 118 178.251 C 118 189.646, 121.705 192.789, 130.050 188.474 C 132.694 187.107, 133 187.107, 133 188.474 C 133 189.616, 134.133 190, 137.500 190 C 140.833 190, 142 189.611, 142 188.500 C 142 187.675, 141.325 187, 140.500 187 C 139.254 187, 139 185.056, 139 175.500 C 139 169.175, 138.715 164, 138.366 164 C 138.017 164, 135.992 164.521, 133.866 165.158 C 130.126 166.279, 128.450 169, 131.500 169 C 134.453 169, 133.588 184.814, 130.593 185.566 C 125.154 186.931, 124 184.901, 124 173.965 C 124 162.893, 123.845 162.700, 117.250 165.584 M 185 165.695 C 179.905 168.322, 179.573 172, 184.430 172 C 187.571 172, 188 171.700, 188 169.500 C 188 166.348, 192.359 165.934, 193.965 168.934 C 195.928 172.603, 195.174 173.759, 190.012 174.997 C 183.161 176.641, 180 179.299, 180 183.418 C 180 189.350, 185.671 191.773, 191.952 188.525 C 194.467 187.224, 194.872 187.224, 195.371 188.525 C 195.755 189.525, 197.397 190, 200.469 190 C 205.093 190, 206.717 188.262, 203 187.290 C 201.182 186.814, 201 185.926, 201 177.538 C 201 164.994, 194.990 160.545, 185 165.695 M 73 178.288 C 69.817 179.890, 69.070 184.432, 71.753 185.868 C 74.188 187.171, 78.548 185.099, 78.375 182.720 C 78.306 181.774, 78.194 180.100, 78.125 179 C 77.981 176.700, 76.549 176.501, 73 178.288 M 190.465 177.952 C 184.515 180.364, 184.794 186.308, 190.835 185.805 C 194.376 185.510, 194.510 185.356, 194.807 181.250 C 195.131 176.782, 194.511 176.311, 190.465 177.952 M 56.218 208.256 C 53.287 209.195, 52.088 211.869, 54.875 211.250 C 56.106 210.977, 56.104 210.970, 56.338 215.936 C 56.500 219.372, 56.500 219.372, 51.789 219.462 C 43.838 219.613, 39.043 224.619, 39.015 232.800 C 38.982 242.298, 45.956 247.770, 53.173 243.907 C 54.650 243.117, 55.517 243.117, 56.307 243.907 C 57.695 245.295, 66 245.347, 66 243.969 C 66 243.401, 65.325 242.678, 64.500 242.362 C 63.246 241.881, 63 238.931, 63 224.393 C 63 205.092, 63.367 205.965, 56.218 208.256 M 145.212 211.500 C 141.458 219.227, 147.436 216.513, 152.371 208.250 C 152.899 207.367, 152.278 207, 150.258 207 C 147.860 207, 147.046 207.725, 145.212 211.500 M 180.410 209.375 C 179.211 212.498, 180.424 214.500, 183.514 214.500 C 186.165 214.500, 186.500 214.164, 186.500 211.500 C 186.500 208.090, 181.564 206.367, 180.410 209.375 M 111.250 210.690 C 109.284 211.440, 109.790 213, 112 213 C 113.908 213, 114 213.667, 114 227.500 C 114 241.333, 113.908 242, 112 242 C 110.889 242, 110 242.667, 110 243.500 C 110 244.700, 111.500 245, 117.500 245 C 123.500 245, 125 244.700, 125 243.500 C 125 242.667, 124.111 242, 123 242 C 121.203 242, 121 241.333, 121 235.440 C 121 228.454, 127.890 225.203, 128.820 231.750 C 129.560 236.961, 132 234.083, 132 228 C 132 223.333, 131.667 222, 130.500 222 C 129.667 222, 129 222.889, 129 224 C 129 225.667, 128.333 226, 125 226 C 121 226, 121 226, 121 220 C 121 214, 121 214, 126.500 214 C 131.700 214, 132 214.136, 132 216.500 C 132 218.333, 132.533 219, 134 219 C 136.744 219, 136.971 211.415, 134.250 210.630 C 132.051 209.997, 112.936 210.046, 111.250 210.690 M 77.309 220.073 C 68.140 222.814, 66.585 238.370, 74.983 243.331 C 80.147 246.381, 92 244.771, 92 241.019 C 92 239.375, 91.685 239.342, 88.027 240.603 C 83.389 242.201, 80.032 241.312, 77.601 237.841 C 74.179 232.956, 75.226 232, 84 232 C 92 232, 92 232, 92 228.556 C 92 221.808, 85.008 217.770, 77.309 220.073 M 143.580 220.418 C 139.643 221.524, 137.457 224, 140.417 224 C 143.204 224, 142.707 241.582, 139.899 242.316 C 135.806 243.387, 139.208 245, 145.559 245 C 151.826 245, 154.405 243.442, 150.031 242.298 C 148.241 241.830, 148.036 240.757, 147.781 230.549 C 147.500 219.316, 147.500 219.316, 143.580 220.418 M 159.236 220.599 C 153.197 223.678, 153.730 229.819, 160.323 233.133 C 166.679 236.328, 168.132 237.885, 166.902 240.182 C 165.343 243.096, 158.780 242.362, 158.039 239.191 C 157.217 235.671, 155.540 236.083, 155.176 239.895 C 154.770 244.140, 156.010 244.965, 162.827 244.985 C 175.791 245.022, 177.418 234.144, 165.205 229.085 C 161.689 227.629, 160.457 225.359, 162.105 223.373 C 164.029 221.055, 167.933 221.693, 169 224.500 C 170.350 228.051, 173 227.759, 173 224.059 C 173 220.545, 172.458 220.141, 166.833 219.460 C 163.883 219.102, 161.458 219.466, 159.236 220.599 M 224.295 220.064 C 221.025 221.053, 217.667 224.651, 218.601 226.163 C 219.874 228.224, 224.958 227.014, 225.589 224.500 C 226.311 221.625, 229.047 221.190, 231.429 223.571 C 234.541 226.684, 233.367 228.569, 227.250 230.280 C 219.318 232.498, 217.600 233.961, 217.600 238.500 C 217.600 244.569, 223.383 246.922, 229.952 243.525 C 232.467 242.224, 232.872 242.224, 233.371 243.525 C 234.168 245.603, 242 245.580, 242 243.500 C 242 242.675, 241.325 242, 240.500 242 C 239.279 242, 239 240.346, 239 233.111 C 239 220.769, 234.666 216.924, 224.295 220.064 M 179.250 221.031 C 176.710 222.052, 176.218 224, 178.500 224 C 179.722 224, 180 225.667, 180 233 C 180 240.333, 179.722 242, 178.500 242 C 177.675 242, 177 242.675, 177 243.500 C 177 244.679, 178.389 245, 183.500 245 C 188.611 245, 190 244.679, 190 243.500 C 190 242.675, 189.373 242, 188.607 242 C 186.482 242, 186 239.675, 186 229.418 C 186 219.133, 185.505 218.517, 179.250 221.031 M 197.106 222.564 C 185.441 232.380, 197.466 250.212, 211.453 243.839 C 214.226 242.576, 215.118 239.357, 212.407 240.397 C 203.732 243.726, 196.528 236.599, 199.832 227.955 C 202.103 222.015, 208 220.267, 208 225.535 C 208 228.731, 213.225 228.857, 213.829 225.676 C 214.933 219.858, 202.968 217.632, 197.106 222.564 M 48.174 224.314 C 43.086 229.730, 46.408 241.550, 52.811 240.811 C 57.204 240.303, 57.594 222, 53.212 222 C 51.512 222, 49.465 222.940, 48.174 224.314 M 78.245 223.250 C 74.918 227.409, 75.661 229, 80.933 229 C 86.442 229, 87.132 228.061, 84.443 224.223 C 82.726 221.771, 79.796 221.311, 78.245 223.250 M 226.750 233.572 C 221.261 236.550, 224.575 243.253, 230.435 241.025 C 232.602 240.201, 233 239.425, 233 236.025 C 233 231.493, 231.597 230.943, 226.750 233.572" stroke="none" fill="#e0f6fb" fill-rule="evenodd"/><path d="M -0 200.002 L -0 400.005 200.250 399.752 L 400.500 399.500 400.752 199.750 L 401.005 0 200.502 0 L 0 0 -0 200.002 M 0.490 200.500 C 0.490 310.500, 0.607 355.352, 0.750 300.170 C 0.893 244.989, 0.893 154.989, 0.750 100.170 C 0.607 45.352, 0.490 90.500, 0.490 200.500 M 148.250 153.247 C 144.543 154.436, 144.094 155.530, 147 156.290 C 148.884 156.783, 149 157.654, 149 171.371 C 149 184.906, 148.859 186.005, 147 187 C 143.283 188.989, 144.968 190, 152 190 C 158.779 190, 161.573 188.486, 157 187.290 C 155.097 186.792, 155 185.926, 155 169.383 C 155 150.102, 155.361 150.966, 148.250 153.247 M 40.750 155.816 C 37.603 156.179, 36.977 158, 40 158 C 41.908 158, 42 158.667, 42 172.500 C 42 186.333, 41.908 187, 40 187 C 38.889 187, 38 187.667, 38 188.500 C 38 189.700, 39.500 190, 45.500 190 C 51.500 190, 53 189.700, 53 188.500 C 53 187.667, 52.111 187, 51 187 C 49.203 187, 49 186.333, 49 180.440 C 49 173.454, 55.890 170.203, 56.820 176.750 C 57.560 181.961, 60 179.083, 60 173 C 60 166.924, 57.916 164.390, 56.710 169 C 56.308 170.538, 55.346 171, 52.546 171 C 47.420 171, 47.253 158.757, 52.371 158.172 C 57.354 157.602, 60 158.763, 60 161.519 C 60 163.333, 60.537 164, 62 164 C 63.661 164, 64 163.333, 64 160.064 C 64 156.143, 53.920 154.301, 40.750 155.816 M 165.372 161.947 C 164.379 163.628, 162.765 165.257, 161.784 165.569 C 159.428 166.316, 159.515 167.640, 161.963 168.280 C 163.719 168.739, 163.955 169.827, 164.213 178.625 C 164.538 189.753, 165.614 191.045, 173.348 189.594 C 177.969 188.728, 178.233 186.246, 173.750 185.813 C 168.379 185.295, 168.098 168, 173.461 168 C 175.407 168, 177 167.550, 177 167 C 177 166.450, 175.454 166, 173.563 166 C 170.436 166, 170.099 165.715, 169.813 162.827 C 169.394 158.577, 167.576 158.217, 165.372 161.947 M 211.372 161.947 C 210.379 163.628, 208.765 165.257, 207.784 165.569 C 205.415 166.321, 205.520 167.641, 208 168.290 C 209.821 168.766, 210 169.654, 210 178.206 C 210 188.577, 210.662 190.008, 215.450 189.986 C 222.688 189.954, 226.304 186.445, 219.750 185.813 C 214.379 185.295, 214.098 168, 219.461 168 C 221.407 168, 223 167.550, 223 167 C 223 166.450, 221.454 166, 219.563 166 C 216.436 166, 216.099 165.715, 215.813 162.827 C 215.394 158.577, 213.576 158.217, 211.372 161.947 M 68.828 165.627 C 63.012 168.042, 62.534 172, 68.059 172 C 70.304 172, 71 171.540, 71 170.059 C 71 167.539, 72.517 166.662, 75.557 167.425 C 80.750 168.728, 78.874 173.604, 72.461 175.468 C 63.700 178.015, 60.839 182.470, 64.557 187.777 C 66.431 190.454, 71.614 190.768, 76.050 188.474 C 78.694 187.107, 79 187.107, 79 188.474 C 79 189.616, 80.133 190, 83.500 190 C 87.868 190, 89.541 188.529, 86.500 187.362 C 85.371 186.928, 85 185.112, 85 180.018 C 85 165.194, 80.188 160.912, 68.828 165.627 M 99.500 165.206 C 86.004 169.922, 88.457 190, 102.530 190 C 107.632 190, 112 188.280, 112 186.272 C 112 185.269, 111.355 185.070, 109.755 185.578 C 102.252 187.959, 97.686 184.729, 97.574 176.961 C 97.464 169.329, 104.970 163.205, 105.808 170.242 C 106.178 173.350, 108.164 174.332, 110.550 172.587 C 113.522 170.414, 111.712 166.292, 107.242 165.050 C 102.933 163.854, 103.397 163.844, 99.500 165.206 M 117.250 165.584 C 113.542 167.206, 113.095 168.530, 116 169.290 C 117.801 169.761, 118 170.654, 118 178.251 C 118 189.646, 121.705 192.789, 130.050 188.474 C 132.694 187.107, 133 187.107, 133 188.474 C 133 189.616, 134.133 190, 137.500 190 C 140.833 190, 142 189.611, 142 188.500 C 142 187.675, 141.325 187, 140.500 187 C 139.254 187, 139 185.056, 139 175.500 C 139 169.175, 138.715 164, 138.366 164 C 138.017 164, 135.992 164.521, 133.866 165.158 C 130.126 166.279, 128.450 169, 131.500 169 C 134.453 169, 133.588 184.814, 130.593 185.566 C 125.154 186.931, 124 184.901, 124 173.965 C 124 162.893, 123.845 162.700, 117.250 165.584 M 185 165.695 C 179.905 168.322, 179.573 172, 184.430 172 C 187.571 172, 188 171.700, 188 169.500 C 188 166.348, 192.359 165.934, 193.965 168.934 C 195.928 172.603, 195.174 173.759, 190.012 174.997 C 183.161 176.641, 180 179.299, 180 183.418 C 180 189.350, 185.671 191.773, 191.952 188.525 C 194.467 187.224, 194.872 187.224, 195.371 188.525 C 195.755 189.525, 197.397 190, 200.469 190 C 205.093 190, 206.717 188.262, 203 187.290 C 201.182 186.814, 201 185.926, 201 177.538 C 201 164.994, 194.990 160.545, 185 165.695 M 73 178.288 C 69.817 179.890, 69.070 184.432, 71.753 185.868 C 74.188 187.171, 78.548 185.099, 78.375 182.720 C 78.306 181.774, 78.194 180.100, 78.125 179 C 77.981 176.700, 76.549 176.501, 73 178.288 M 190.465 177.952 C 184.515 180.364, 184.794 186.308, 190.835 185.805 C 194.376 185.510, 194.510 185.356, 194.807 181.250 C 195.131 176.782, 194.511 176.311, 190.465 177.952 M 56.218 208.256 C 53.287 209.195, 52.088 211.869, 54.875 211.250 C 56.106 210.977, 56.104 210.970, 56.338 215.936 C 56.500 219.372, 56.500 219.372, 51.789 219.462 C 43.838 219.613, 39.043 224.619, 39.015 232.800 C 38.982 242.298, 45.956 247.770, 53.173 243.907 C 54.650 243.117, 55.517 243.117, 56.307 243.907 C 57.695 245.295, 66 245.347, 66 243.969 C 66 243.401, 65.325 242.678, 64.500 242.362 C 63.246 241.881, 63 238.931, 63 224.393 C 63 205.092, 63.367 205.965, 56.218 208.256 M 145.212 211.500 C 141.458 219.227, 147.436 216.513, 152.371 208.250 C 152.899 207.367, 152.278 207, 150.258 207 C 147.860 207, 147.046 207.725, 145.212 211.500 M 180.410 209.375 C 179.211 212.498, 180.424 214.500, 183.514 214.500 C 186.165 214.500, 186.500 214.164, 186.500 211.500 C 186.500 208.090, 181.564 206.367, 180.410 209.375 M 111.250 210.690 C 109.284 211.440, 109.790 213, 112 213 C 113.908 213, 114 213.667, 114 227.500 C 114 241.333, 113.908 242, 112 242 C 110.889 242, 110 242.667, 110 243.500 C 110 244.700, 111.500 245, 117.500 245 C 123.500 245, 125 244.700, 125 243.500 C 125 242.667, 124.111 242, 123 242 C 121.203 242, 121 241.333, 121 235.440 C 121 228.454, 127.890 225.203, 128.820 231.750 C 129.560 236.961, 132 234.083, 132 228 C 132 223.333, 131.667 222, 130.500 222 C 129.667 222, 129 222.889, 129 224 C 129 225.667, 128.333 226, 125 226 C 121 226, 121 226, 121 220 C 121 214, 121 214, 126.500 214 C 131.700 214, 132 214.136, 132 216.500 C 132 218.333, 132.533 219, 134 219 C 136.744 219, 136.971 211.415, 134.250 210.630 C 132.051 209.997, 112.936 210.046, 111.250 210.690 M 77.309 220.073 C 68.140 222.814, 66.585 238.370, 74.983 243.331 C 80.147 246.381, 92 244.771, 92 241.019 C 92 239.375, 91.685 239.342, 88.027 240.603 C 83.389 242.201, 80.032 241.312, 77.601 237.841 C 74.179 232.956, 75.226 232, 84 232 C 92 232, 92 232, 92 228.556 C 92 221.808, 85.008 217.770, 77.309 220.073 M 143.580 220.418 C 139.643 221.524, 137.457 224, 140.417 224 C 143.204 224, 142.707 241.582, 139.899 242.316 C 135.806 243.387, 139.208 245, 145.559 245 C 151.826 245, 154.405 243.442, 150.031 242.298 C 148.241 241.830, 148.036 240.757, 147.781 230.549 C 147.500 219.316, 147.500 219.316, 143.580 220.418 M 159.236 220.599 C 153.197 223.678, 153.730 229.819, 160.323 233.133 C 166.679 236.328, 168.132 237.885, 166.902 240.182 C 165.343 243.096, 158.780 242.362, 158.039 239.191 C 157.217 235.671, 155.540 236.083, 155.176 239.895 C 154.770 244.140, 156.010 244.965, 162.827 244.985 C 175.791 245.022, 177.418 234.144, 165.205 229.085 C 161.689 227.629, 160.457 225.359, 162.105 223.373 C 164.029 221.055, 167.933 221.693, 169 224.500 C 170.350 228.051, 173 227.759, 173 224.059 C 173 220.545, 172.458 220.141, 166.833 219.460 C 163.883 219.102, 161.458 219.466, 159.236 220.599 M 224.295 220.064 C 221.025 221.053, 217.667 224.651, 218.601 226.163 C 219.874 228.224, 224.958 227.014, 225.589 224.500 C 226.311 221.625, 229.047 221.190, 231.429 223.571 C 234.541 226.684, 233.367 228.569, 227.250 230.280 C 219.318 232.498, 217.600 233.961, 217.600 238.500 C 217.600 244.569, 223.383 246.922, 229.952 243.525 C 232.467 242.224, 232.872 242.224, 233.371 243.525 C 234.168 245.603, 242 245.580, 242 243.500 C 242 242.675, 241.325 242, 240.500 242 C 239.279 242, 239 240.346, 239 233.111 C 239 220.769, 234.666 216.924, 224.295 220.064 M 179.250 221.031 C 176.710 222.052, 176.218 224, 178.500 224 C 179.722 224, 180 225.667, 180 233 C 180 240.333, 179.722 242, 178.500 242 C 177.675 242, 177 242.675, 177 243.500 C 177 244.679, 178.389 245, 183.500 245 C 188.611 245, 190 244.679, 190 243.500 C 190 242.675, 189.373 242, 188.607 242 C 186.482 242, 186 239.675, 186 229.418 C 186 219.133, 185.505 218.517, 179.250 221.031 M 197.106 222.564 C 185.441 232.380, 197.466 250.212, 211.453 243.839 C 214.226 242.576, 215.118 239.357, 212.407 240.397 C 203.732 243.726, 196.528 236.599, 199.832 227.955 C 202.103 222.015, 208 220.267, 208 225.535 C 208 228.731, 213.225 228.857, 213.829 225.676 C 214.933 219.858, 202.968 217.632, 197.106 222.564 M 48.174 224.314 C 43.086 229.730, 46.408 241.550, 52.811 240.811 C 57.204 240.303, 57.594 222, 53.212 222 C 51.512 222, 49.465 222.940, 48.174 224.314 M 78.245 223.250 C 74.918 227.409, 75.661 229, 80.933 229 C 86.442 229, 87.132 228.061, 84.443 224.223 C 82.726 221.771, 79.796 221.311, 78.245 223.250 M 226.750 233.572 C 221.261 236.550, 224.575 243.253, 230.435 241.025 C 232.602 240.201, 233 239.425, 233 236.025 C 233 231.493, 231.597 230.943, 226.750 233.572" stroke="none" fill="#0467fb" fill-rule="evenodd"/></svg>