<?xml version="1.0" encoding="UTF-8"?>
<svg version="1.1" xmlns="http://www.w3.org/2000/svg" width="512" height="512">
<path d="M0 0 C2.43822875 2.24741085 4.74453399 4.5710366 7 7 C7.825 7.825 8.65 8.65 9.5 9.5 C10.325 10.325 11.15 11.15 12 12 C12.49886719 12.4640625 12.99773437 12.928125 13.51171875 13.40625 C23.062873 22.48986523 30.51756375 33.59317629 37 45 C37.391875 45.68271973 37.78375 46.36543945 38.1875 47.06884766 C48.66868482 65.52146483 55.80924803 85.20055076 60 106 C60.16371094 106.81243164 60.32742188 107.62486328 60.49609375 108.46191406 C69.70919878 156.86878615 60.12455876 211.55542021 32.71386719 252.71875 C30.54357416 255.8645406 28.29934651 258.94756059 26 262 C25.31292969 262.9178125 24.62585938 263.835625 23.91796875 264.78125 C2.78553776 291.98226097 -24.8599572 311.81658779 -57 324 C-57.72767578 324.27827637 -58.45535156 324.55655273 -59.20507812 324.84326172 C-72.13717481 329.70012577 -85.43139007 332.53588923 -99 335 C-99.70769531 335.13422363 -100.41539062 335.26844727 -101.14453125 335.40673828 C-147.37055273 343.91261335 -197.91383288 330.76614712 -236.375 304.5625 C-243.6389403 299.48871505 -250.35484055 293.84883869 -257 288 C-257.77085937 287.35160156 -258.54171875 286.70320313 -259.3359375 286.03515625 C-264.05290731 282.05013003 -268.02682501 277.71567687 -272 273 C-272.82371094 272.07574219 -273.64742187 271.15148437 -274.49609375 270.19921875 C-309.20504647 230.96083528 -322.34600165 180.42843622 -320 129 C-319.48972093 121.90328011 -318.44650792 114.96299517 -317 108 C-316.74259033 106.75718262 -316.74259033 106.75718262 -316.47998047 105.48925781 C-312.50239928 86.96986728 -305.98699034 69.65108877 -297 53 C-296.67386719 52.38785645 -296.34773438 51.77571289 -296.01171875 51.14501953 C-291.38999652 42.52532344 -286.12414912 34.63025094 -280 27 C-279.38366699 26.22922119 -279.38366699 26.22922119 -278.75488281 25.44287109 C-246.77637332 -14.26764623 -201.3496964 -40.04351471 -150.55102539 -46.22631836 C-96.68478723 -51.93905772 -41.25011351 -34.89140036 0 0 Z M-244 25 C-244.99243754 25.93211098 -245.98594328 26.86308582 -246.98046875 27.79296875 C-259.54682951 39.72105108 -269.12687016 53.62074098 -277 69 C-277.31807617 69.61697754 -277.63615234 70.23395508 -277.96386719 70.86962891 C-298.56659469 111.37540927 -299.55906299 157.0843935 -286 200 C-272.11512057 241.35164038 -243.74438996 273.81574444 -205.2578125 294 C-184.68995058 304.08140278 -161.02416449 311.0554642 -138.01171875 311.203125 C-137.27525116 311.21018463 -136.53878357 311.21724426 -135.77999878 311.22451782 C-113.21517733 311.49942032 -113.21517733 311.49942032 -91 308 C-90.16549316 307.79600586 -89.33098633 307.59201172 -88.47119141 307.38183594 C-43.92433356 296.19014044 -7.85140169 270.63880673 16.09033203 231.20410156 C38.95550734 192.48272805 44.65462088 144.73927645 33.8125 101.4375 C28.35590227 81.0460548 18.56239664 61.89500831 6 45 C5.34902344 44.1234375 4.69804687 43.246875 4.02734375 42.34375 C-6.96960201 28.27443982 -20.04456452 15.75925781 -35 6 C-35.90782227 5.40566162 -35.90782227 5.40566162 -36.83398438 4.79931641 C-101.77413773 -37.10813112 -188.57609923 -29.19736908 -244 25 Z " fill="#5A50CB" transform="translate(384,129)"/>
<path d="M0 0 C3.12578143 1.6720747 5.39281175 3.7856235 7 7 C7.09160337 9.06292985 7.1175118 11.12888885 7.11352539 13.19384766 C7.11341209 15.14564438 7.11341209 15.14564438 7.11329651 17.13687134 C7.10818947 18.56260211 7.10297347 19.9883325 7.09765625 21.4140625 C7.09579147 22.86851961 7.09436785 24.32297734 7.09336853 25.7774353 C7.08954805 29.60792776 7.07972176 33.43838237 7.06866455 37.26885986 C7.05844035 41.17663053 7.05386874 45.08440731 7.04882812 48.9921875 C7.03809908 56.6614756 7.02102828 64.3307325 7 72 C8.20150192 71.98334541 8.20150192 71.98334541 9.42727661 71.96635437 C16.98945154 71.86601717 24.55130207 71.78996728 32.1139698 71.74093914 C36.00172532 71.7148853 39.88892915 71.67956635 43.77636719 71.62280273 C47.53060168 71.56832948 51.2843068 71.53854778 55.0389061 71.52561378 C56.46865036 71.51640108 57.89836683 71.49841012 59.32788467 71.47134972 C71.93798471 71.24221652 71.93798471 71.24221652 75.86279297 74.40551758 C79.23375309 78.49772607 79.40022326 81.25650039 79.34765625 86.453125 C78.77336399 90.66029972 77.15372024 92.19669312 74 95 C70.14737724 96.92591254 67.02226389 97.24448987 62.7409668 97.22705078 C60.87960335 97.22682419 60.87960335 97.22682419 58.9806366 97.22659302 C57.63682899 97.21638143 56.29302305 97.20594946 54.94921875 97.1953125 C53.5663117 97.19157931 52.18340198 97.18873378 50.80049133 97.18673706 C47.1721966 97.17912462 43.54406363 97.15949691 39.91583252 97.1373291 C36.20888456 97.11681899 32.5019103 97.10772433 28.79492188 97.09765625 C21.52987441 97.07624855 14.26495993 97.04214175 7 97 C7.01110306 97.78847321 7.02220612 98.57694641 7.03364563 99.38931274 C7.13398907 106.8337576 7.21003581 114.27787282 7.25906086 121.72281837 C7.28511309 125.55004438 7.32042891 129.37670985 7.37719727 133.20361328 C7.43167656 136.89949394 7.46145343 140.59483678 7.47438622 144.2910881 C7.48359787 145.69850503 7.50158679 147.10589375 7.52865028 148.5130806 C7.75778248 160.92489499 7.75778248 160.92489499 4.59448242 164.84912109 C0.50556954 168.23891336 -2.2479867 168.38948343 -7.44921875 168.359375 C-11.55868504 167.78039966 -13.21349577 166.00085071 -16 163 C-17.38425411 160.23149177 -17.11959962 157.99580816 -17.11352539 154.89794922 C-17.11341209 152.97618362 -17.11341209 152.97618362 -17.11329651 151.01559448 C-17.10818948 149.61195843 -17.10297348 148.20832277 -17.09765625 146.8046875 C-17.09579146 145.37265065 -17.09436784 143.94061316 -17.09336853 142.50857544 C-17.08954819 138.73726646 -17.07972202 134.96599593 -17.06866455 131.19470215 C-17.05844005 127.34725464 -17.05386868 123.49980093 -17.04882812 119.65234375 C-17.03809933 112.10154497 -17.02102869 104.55077787 -17 97 C-18.14512558 97.00999275 -18.14512558 97.00999275 -19.31338501 97.02018738 C-26.52240732 97.08040162 -33.73130698 97.12602656 -40.94051552 97.15543652 C-44.64648834 97.171065 -48.35225264 97.19225119 -52.05810547 97.22631836 C-55.63724175 97.25901319 -59.21617798 97.27687419 -62.79545212 97.28463173 C-64.15815757 97.29015716 -65.52085259 97.30094704 -66.88347244 97.31719017 C-68.79801931 97.33909636 -70.71276925 97.34022653 -72.62744141 97.34057617 C-73.71554108 97.34723801 -74.80364075 97.35389984 -75.92471313 97.36076355 C-80.58337834 96.81425304 -83.86411127 94.98642968 -87.375 91.9375 C-89.75108971 87.64226091 -89.9122003 83.7986335 -89 79 C-87.30375149 75.88290864 -85.22141825 73.61070912 -82 72 C-79.93707015 71.90839663 -77.87111115 71.8824882 -75.80615234 71.88647461 C-74.50495453 71.88655014 -73.20375671 71.88662567 -71.86312866 71.88670349 C-70.43739789 71.89181053 -69.0116675 71.89702653 -67.5859375 71.90234375 C-66.13148039 71.90420853 -64.67702266 71.90563215 -63.2225647 71.90663147 C-59.39207224 71.91045195 -55.56161763 71.92027824 -51.73114014 71.93133545 C-47.82336947 71.94155965 -43.91559269 71.94613126 -40.0078125 71.95117188 C-32.3385244 71.96190092 -24.6692675 71.97897172 -17 72 C-17.01110306 71.19899872 -17.02220612 70.39799744 -17.03364563 69.57272339 C-17.13398283 62.01054846 -17.21003272 54.44869793 -17.25906086 46.8860302 C-17.2851147 42.99827468 -17.32043365 39.11107085 -17.37719727 35.22363281 C-17.43167052 31.46939832 -17.46145222 27.7156932 -17.47438622 23.9610939 C-17.48359892 22.53134964 -17.50158988 21.10163317 -17.52865028 19.67211533 C-17.75778348 7.06201529 -17.75778348 7.06201529 -14.59448242 3.13720703 C-9.99863726 -0.6486242 -5.82346852 -0.82045805 0 0 Z " fill="#5B50CB" transform="translate(261,190)"/>
<path d="M0 0 C6.85964405 3.79611062 12.38460828 10.10072737 17.85668945 15.59790039 C18.81809544 16.55659056 19.7799251 17.514856 20.74214172 18.47273254 C23.33322951 21.054768 25.91802996 23.64301027 28.50140786 26.23275685 C31.21425496 28.95069685 33.93201177 31.66372062 36.64897156 34.37754822 C41.20586089 38.93080932 45.75854005 43.48824805 50.30883789 48.0480957 C55.56405939 53.31421918 60.82647329 58.57307284 66.09264213 63.82824713 C70.62474124 68.35126417 75.15292376 72.87817453 79.67786759 77.40834993 C82.3758938 80.10948824 85.07523916 82.80927102 87.77813148 85.50554085 C90.31652513 88.03814758 92.84995794 90.57561538 95.37968254 93.11688042 C96.74859757 94.48968992 98.12242438 95.85759611 99.49639893 97.2253418 C100.31354874 98.04813126 101.13069855 98.87092072 101.97261047 99.71864319 C102.68214025 100.42892701 103.39167002 101.13921083 104.12270069 101.87101841 C108.38979962 106.71019084 109.55342508 110.29039752 109.35546875 116.625 C108.72464298 120.83974803 106.53004085 122.85246936 103.25 125.3125 C99.85947477 126.34849382 96.4792412 126.60255015 93 126 C89.28959394 124.01459829 86.47147778 121.72246879 83.50190735 118.75587463 C82.63126648 117.89087341 81.76062561 117.02587219 80.86360168 116.13465881 C79.91197798 115.17914708 78.96045863 114.22353142 78.0090332 113.26782227 C76.99718875 112.25868969 75.98491971 111.24998269 74.97225952 110.2416687 C72.23021579 107.50872655 69.4945168 104.76951522 66.76019692 102.02884793 C63.89603978 99.15962065 61.02699862 96.29528377 58.15873718 93.43016052 C53.34432677 88.61938621 48.53414318 83.80441579 43.72631836 78.98706055 C38.16837045 73.41822261 32.60324591 67.85663456 27.03435069 62.29874569 C22.25095313 57.52442377 17.47146374 52.74621572 12.6952197 47.96473736 C9.84348249 45.10988278 6.99041277 42.25639515 4.13381386 39.4064045 C1.44937089 36.72773857 -1.23013274 34.04422782 -3.90590286 31.35689926 C-4.88859565 30.37156209 -5.87299417 29.38792268 -6.85921288 28.40611458 C-8.20505251 27.06574012 -9.54413397 25.71859009 -10.88285828 24.37110901 C-11.63407802 23.61913522 -12.38529776 22.86716143 -13.15928173 22.09240055 C-15.94518307 18.9255816 -16.92252057 16.83677788 -17.3125 12.625 C-16.88288535 7.64147006 -15.65829885 4.46320487 -11.875 1.125 C-7.73079244 -0.49664644 -4.37901828 -0.80034915 0 0 Z " fill="#2562BB" transform="translate(375,46)"/>
<path d="M0 0 C3.5544915 1.39088798 4.71251242 2.56381194 6.8125 5.75 C8.19317311 9.52868431 8.49945097 12.00439225 8 16 C4.55178899 22.32025968 -0.80229718 27.08381416 -5.86157227 32.12036133 C-6.8724743 33.13397636 -7.88295101 34.14801573 -8.89303589 35.16244507 C-11.62585947 37.90435471 -14.36493309 40.63993858 -17.10547757 43.37412858 C-19.97516955 46.23874512 -22.83996524 49.10825161 -25.70555115 51.97697449 C-30.51454664 56.78960336 -35.32773253 61.59801106 -40.14331055 66.40405273 C-45.71276321 71.9626035 -51.27494931 77.52834763 -56.83345181 83.09784681 C-61.60863101 87.88209465 -66.38768744 92.66244322 -71.17002147 97.43953913 C-74.02538935 100.29178737 -76.87938477 103.14537361 -79.72989082 106.00248146 C-82.40693024 108.68528819 -85.08879568 111.36317415 -87.7745018 114.03730392 C-88.76026221 115.02041526 -89.74431616 116.00524099 -90.72654915 116.9918766 C-92.06503966 118.3358135 -93.41027882 119.67301914 -94.75587463 121.00984192 C-95.5074714 121.76068463 -96.25906816 122.51152735 -97.03344059 123.28512287 C-100.33612966 126.16513042 -103.6454313 126.33644551 -107.93359375 126.2890625 C-111.3150794 125.81603804 -113.42666084 124.1444493 -116 122 C-118.05956327 118.91065509 -118.36551661 117.88191334 -118.5 114.3125 C-118.57734375 113.10013672 -118.57734375 113.10013672 -118.65625 111.86328125 C-116.75449722 103.56575273 -108.2002038 96.91494929 -102.40209961 91.14331055 C-101.44340944 90.18190456 -100.485144 89.2200749 -99.52726746 88.25785828 C-96.945232 85.66677049 -94.35698973 83.08197004 -91.76724315 80.49859214 C-89.04930315 77.78574504 -86.33627938 75.06798823 -83.62245178 72.35102844 C-79.06919068 67.79413911 -74.51175195 63.24145995 -69.9519043 58.69116211 C-64.68578082 53.43594061 -59.42692716 48.17352671 -54.17175287 42.90735787 C-49.64873583 38.37525876 -45.12182547 33.84707624 -40.59165007 29.32213241 C-37.89051176 26.6241062 -35.19072898 23.92476084 -32.49445915 21.22186852 C-29.96185242 18.68347487 -27.42438462 16.15004206 -24.88311958 13.62031746 C-23.51031008 12.25140243 -22.14240389 10.87757562 -20.7746582 9.50360107 C-19.54047401 8.27787636 -19.54047401 8.27787636 -18.28135681 7.02738953 C-17.57107299 6.31785975 -16.86078917 5.60832998 -16.12898159 4.87729931 C-10.89594866 0.26290098 -6.81183778 -0.89173149 0 0 Z " fill="#8D3FDB" transform="translate(146,46)"/>
</svg>
